<?xml version="1.0" standalone="no"?>
<!DOCTYPE svg PUBLIC "-//W3C//DTD SVG 20010904//EN"
 "http://www.w3.org/TR/2001/REC-SVG-20010904/DTD/svg10.dtd">
<svg version="1.0" xmlns="http://www.w3.org/2000/svg"
 width="406.000000pt" height="419.000000pt" viewBox="0 0 406.000000 419.000000"
 preserveAspectRatio="xMidYMid meet">

<g transform="translate(0.000000,419.000000) scale(0.100000,-0.100000)"
fill="#000000" stroke="none">
<path d="M0 2095 l0 -2095 2030 0 2030 0 0 2095 0 2095 -2030 0 -2030 0 0
-2095z m3913 1758 c3 -32 4 -116 3 -188 -2 -71 -3 -869 -4 -1772 l-2 -1643
-1885 0 -1885 0 2 1613 3 1612 26 72 c61 166 189 289 359 344 52 17 152 18
1717 18 l1661 1 5 -57z"/>
<path d="M569 3766 c-67 -18 -127 -57 -187 -120 -93 -98 -133 -228 -113 -370
17 -122 51 -196 125 -274 58 -61 66 -64 123 -45 43 16 132 18 951 20 l902 4 0
399 0 400 -877 -1 c-663 0 -889 -3 -924 -13z"/>
<path d="M2697 3769 c-34 -20 -57 -88 -57 -172 0 -70 -2 -79 -20 -84 -17 -5
-20 -14 -20 -69 0 -57 2 -64 20 -64 19 0 20 -7 20 -166 l0 -165 48 3 47 3 3
163 2 162 24 0 c34 0 43 18 38 78 -4 50 -5 52 -33 52 -28 0 -29 1 -29 54 0 58
18 90 45 80 12 -5 15 6 15 59 0 50 -4 66 -16 71 -24 9 -67 7 -87 -5z"/>
<path d="M3270 3581 c0 -65 -2 -70 -22 -73 -21 -3 -23 -8 -23 -63 0 -55 2 -60
23 -63 22 -3 22 -5 22 -168 l0 -165 48 3 47 3 3 162 2 162 28 3 c26 3 27 6 30
66 l3 62 -31 0 -30 0 0 70 0 70 -50 0 -50 0 0 -69z"/>
<path d="M2922 3485 c-54 -48 -77 -110 -77 -205 0 -137 58 -229 152 -237 60
-6 107 23 143 87 20 36 25 63 28 138 5 110 -10 161 -63 212 -28 27 -44 34 -88
38 -51 4 -57 2 -95 -33z m117 -104 c38 -38 41 -153 5 -192 -20 -22 -57 -25
-73 -5 -37 45 -35 153 5 193 28 28 38 29 63 4z"/>
<path d="M3559 3496 c-60 -41 -84 -103 -84 -216 0 -80 4 -103 24 -143 62 -126
203 -130 271 -7 36 66 41 205 10 277 -32 75 -68 105 -132 110 -44 4 -59 0 -89
-21z m127 -142 c29 -69 8 -175 -36 -189 -17 -5 -29 0 -49 19 -23 24 -26 34
-26 97 0 64 2 73 27 94 35 30 66 23 84 -21z"/>
<path d="M265 2705 c-11 -316 -3 -496 24 -565 56 -143 175 -233 338 -255 59
-8 54 -13 71 78 32 169 168 323 349 394 l68 27 420 6 c457 5 456 5 503 64 40
51 46 82 28 131 -23 59 -72 100 -136 114 -34 7 -259 11 -673 11 -493 0 -633 3
-673 14 -77 20 -185 81 -252 142 l-60 54 -7 -215z"/>
<path d="M2049 2309 c-60 -43 -121 -49 -514 -49 -416 0 -428 -1 -532 -69 -171
-110 -236 -324 -169 -553 17 -59 90 -166 136 -200 25 -18 26 -18 67 2 96 46
136 50 523 50 406 0 416 2 473 69 45 54 48 82 45 438 l-3 331 -26 -19z"/>
<path d="M812 1052 l3 -348 38 -76 c62 -126 174 -213 307 -238 33 -6 480 -10
1226 -10 l1174 0 0 410 0 410 -1202 0 c-1022 0 -1210 2 -1251 15 -76 23 -179
82 -237 135 -30 28 -56 50 -58 50 -2 0 -2 -157 0 -348z"/>
</g>
</svg>
